<svg xmlns="http://www.w3.org/2000/svg" width="102.34" height="101.88" viewBox="0 0 102.34 101.88">
  <defs>
    <style>
      .cls-1 {
        fill: #fff;
        fill-rule: evenodd;
      }
    </style>
  </defs>
  <path id="SHI" class="cls-1" d="M3021.17,1269.07a33.1,33.1,0,0,0-29.97-32.88v15.84q9.66,0.585,15.9,4.68l-4.53,5.24a29.937,29.937,0,0,0-14.41-3.66q-10.365,0-10.37,3.43c0,1.12.95,1.9,2.85,2.35a28.2,28.2,0,0,0,5.48.59q5.49,0.27,6.93.41,7.98,0.72,11.47,2.89a7.578,7.578,0,0,1,3.76,6.96,9.244,9.244,0,0,1-4.94,8.33q-4.365,2.625-12.14,2.92v15.78A33.114,33.114,0,0,0,3021.17,1269.07Zm-21.37,6.16c0-1.29-.99-2.15-2.99-2.57a67.285,67.285,0,0,0-8.24-.63q-9.87-.4-14.32-2.58-4.755-2.25-4.75-7.05,0-4.875,4.75-7.68,3.945-2.31,10.65-2.72v-15.81a33.021,33.021,0,0,0,0,65.76v-15.93a35.212,35.212,0,0,1-17.08-5.95l4.35-5.33a32.8,32.8,0,0,0,17.31,5.06,18.837,18.837,0,0,0,7.65-1.27Q2999.8,1277.27,2999.8,1275.23Zm-14.9,33.03a39.308,39.308,0,0,1,0-78.38v-11.74a51.018,51.018,0,0,0,0,101.86v-11.74Zm6.3-90.12v11.74a39.308,39.308,0,0,1,0,78.38V1320A51.019,51.019,0,0,0,2991.2,1218.14ZM2780,1396" transform="translate(-2936.88 -1218.12)"/>
</svg>
