<svg xmlns="http://www.w3.org/2000/svg" width="49.9" height="41.25" viewBox="0 0 49.9 41.25">
  <defs>
    <style>
      .cls-1 {
        fill: #fff;
        fill-rule: evenodd;
      }
    </style>
  </defs>
  <path id="telegram_copy_2" data-name="telegram copy 2" class="cls-1" d="M3005.42,763.345c-0.26,1.146-.33,2.32-0.53,3.474-0.26,1.508-.58,3.008-0.81,4.521-0.18,1.145-.33,2.292-0.55,3.433-0.27,1.44-.45,2.9-0.74,4.331-0.16.757-.31,1.513-0.44,2.275-0.16.958-.3,1.923-0.54,2.862a6.312,6.312,0,0,1-1.57,3.109,2.578,2.578,0,0,1-2.3.673,8.443,8.443,0,0,1-3.53-1.558c-0.78-.53-1.55-1.068-2.33-1.59-3.71-2.46-7.39-4.955-11.07-7.441a5.444,5.444,0,0,1-1.4-1.248c-0.84-1.143-.85-1.627-0.06-2.819a14.739,14.739,0,0,1,2.29-2.435c0.15-.144.3-0.3,0.44-0.446a1.564,1.564,0,0,0,.17-0.137c2-1.859,4-3.708,5.98-5.579q2.37-2.244,4.69-4.532c0.61-.594,1.16-1.24,1.73-1.869a0.847,0.847,0,0,0,.1-0.965,0.806,0.806,0,0,0-.83-0.25,2.449,2.449,0,0,0-.74.286,25.856,25.856,0,0,0-2.94,1.856c-3.73,2.377-7.36,4.9-11.02,7.389l-5.22,3.541a19.732,19.732,0,0,1-2.3,1.172,7.825,7.825,0,0,1-4.84.056c-2.37-.565-4.68-1.311-7-2.06-0.39-.125-0.77-0.276-1.16-0.415a3.14,3.14,0,0,1-1.4-1.2,1.143,1.143,0,0,1,.21-1.272,3.811,3.811,0,0,1,1.31-1.06c1.57-.868,3.26-1.48,4.89-2.2q3.855-1.707,7.72-3.382,4.455-1.924,8.91-3.826c1.61-.692,3.21-1.434,4.85-2.057,0.92-.348,1.78-0.818,2.7-1.136,0.6-.208,1.18-0.461,1.76-0.7,1.1-.449,2.17-0.945,3.27-1.389,1.9-.769,3.81-1.532,5.72-2.272,1.02-.394,2.06-0.743,3.1-1.1a8.82,8.82,0,0,1,2.81-.57c0.96,0,2.15.461,2.3,1.4a5.03,5.03,0,0,1,.2,1.8c-0.28,1.272-.27,2.575-0.46,3.857-0.17,1.157-.37,2.318-0.46,3.493a4.526,4.526,0,0,1-.32,1.465,3.025,3.025,0,0,0-.03.75c-0.2,1.15-.33,2.312-0.57,3.457A1.631,1.631,0,0,0,3005.42,763.345Z" transform="translate(-2957.38 -746.812)"/>
</svg>
