<svg xmlns="http://www.w3.org/2000/svg" width="44.56" height="44.5" viewBox="0 0 44.56 44.5">
  <defs>
    <style>
      .cls-1 {
        fill: #fff;
        fill-rule: evenodd;
      }
    </style>
  </defs>
  <path id="Shape_24_copy" data-name="Shape 24 copy" class="cls-1" d="M2982.76,1138.01h-0.79c-0.21-.03-0.42-0.06-0.64-0.08a1.091,1.091,0,0,0-.06-0.11c-0.03.02-.05,0.04-0.08,0.06l-1.99-.24c-0.03-.02-0.05-0.03-0.08-0.05-0.33-.06-0.66-0.11-0.99-0.17a0.3,0.3,0,0,1-.07-0.05c-0.26-.05-0.52-0.11-0.78-0.16-0.02-.02-0.05-0.03-0.07-0.05-0.21-.05-0.43-0.1-0.64-0.16-0.05-.02-0.09-0.03-0.14-0.05-0.24-.08-0.48-0.15-0.71-0.23-0.03-.02-0.05-0.04-0.08-0.06-0.16-.05-0.33-0.1-0.49-0.15-0.03-.02-0.05-0.04-0.08-0.06-0.33-.12-0.66-0.25-0.99-0.37l-0.06-.06c-0.97-.53-1.95-1.05-2.92-1.58a0.351,0.351,0,0,1-.08-0.05c-0.03-.01-0.06-0.01-0.08-0.02l-0.12-.12c-0.41-.29-0.81-0.58-1.21-0.87a0.2,0.2,0,0,1-.07-0.06c-0.45-.36-0.9-0.72-1.36-1.08-0.06-.07-0.13-0.13-0.19-0.2-0.41-.4-0.82-0.81-1.22-1.22-0.07-.06-0.14-0.13-0.21-0.19l-1.08-1.35a0.423,0.423,0,0,0-.05-0.07c-0.06-.07-0.11-0.15-0.16-0.22a0.435,0.435,0,0,1-.06-0.07c-0.09-.12-0.19-0.25-0.29-0.37-0.05-.07-0.09-0.13-0.14-0.2a22.7,22.7,0,0,1-2.14-3.9,0.435,0.435,0,0,1-.06-0.07c-0.03-.09-0.05-0.18-0.08-0.28-0.02-.02-0.04-0.05-0.06-0.07a0.17,0.17,0,0,1-.01-0.07c-0.02-.02-0.04-0.05-0.06-0.07-0.07-.24-0.15-0.47-0.23-0.71-0.04-.1-0.08-0.19-0.12-0.29s-0.06-.19-0.09-0.28c-0.05-.12-0.09-0.24-0.13-0.36l-0.15-.57c-0.02-.04-0.04-0.09-0.06-0.14-0.03-.16-0.06-0.32-0.09-0.49-0.02-.02-0.03-0.05-0.05-0.07-0.01-.07-0.01-0.14-0.02-0.21-0.02-.03-0.04-0.05-0.06-0.08-0.02-.16-0.05-0.33-0.08-0.5-0.02-.04-0.04-0.09-0.06-0.14-0.05-.35-0.1-0.71-0.15-1.06-0.02-.07-0.04-0.14-0.06-0.22-0.01-.16-0.01-0.32-0.02-0.48a0.351,0.351,0,0,1-.05-0.08c-0.01-.12-0.01-0.24-0.01-0.36-0.02-.14-0.04-0.28-0.06-0.43-0.01-.35-0.01-0.7-0.02-1.06v-1.28a17.194,17.194,0,0,1,.37-3.5,18.767,18.767,0,0,1,1.28-4.29,20.967,20.967,0,0,1,2.69-4.77c0.57-.72,1.14-1.43,1.75-2.11a14.016,14.016,0,0,1,1.42-1.36c0.58-.49,1.18-0.95,1.79-1.39a20.426,20.426,0,0,1,6.42-3.19c1.12-.31,2.27-0.5,3.41-0.75,0.28-.06.57-0.1,0.85-0.15,0.46-.02.93-0.08,1.4-0.06,1.23,0.05,2.46.1,3.68,0.22a17.937,17.937,0,0,1,2.62.45,21.782,21.782,0,0,1,6.98,3.1,22.762,22.762,0,0,1,4.97,4.58,21.957,21.957,0,0,1,3.3,5.65,20.607,20.607,0,0,1,1.51,6.94c0.04,0.18.09,0.37,0.13,0.56v1.49c-0.04.17-.09,0.34-0.13,0.5-0.08.77-.12,1.54-0.24,2.29a19.8,19.8,0,0,1-.52,2.43,21.674,21.674,0,0,1-1.65,4.17,4.186,4.186,0,0,1-.14.47c-0.16.28-.38,0.54-0.56,0.81-0.25.37-.47,0.76-0.73,1.12a22.789,22.789,0,0,1-4.08,4.47,24.253,24.253,0,0,1-3.94,2.65,20.55,20.55,0,0,1-3.92,1.6,20.093,20.093,0,0,1-4.55.86c-0.31.02-.62,0.09-0.94,0.14h-1.27Zm-6.2-16.89a2.25,2.25,0,0,0-.05-0.22v-0.28l0.06-.21c0.03-.19.06-0.38,0.1-0.57,0-.01.02-0.02,0.02-0.03s-0.02-.03-0.03-0.04a4.1,4.1,0,0,1,1.61-2.28,0.351,0.351,0,0,0,.08-0.05c0.42-.17.85-0.34,1.27-0.51,0.05-.02.1-0.03,0.15-0.05l0.64-.03h0.21c0.36,0.02.71,0.04,1.06,0.07a0.56,0.56,0,0,0,.08-0.2v-4.26a0.568,0.568,0,0,0-.07-0.22,3.81,3.81,0,0,0-.67-0.07,15.433,15.433,0,0,0-2.26.07,8.478,8.478,0,0,0-1.81.58,7.769,7.769,0,0,0-2.66,1.83,8.742,8.742,0,0,0-2.25,3.98,0.059,0.059,0,0,0,.01.07c-0.03.07-.05,0.15-0.08,0.22,0,0.04.01,0.09,0.01,0.13-0.02.05-.03,0.1-0.05,0.15a0.423,0.423,0,0,1-.05.07c-0.01.15-.02,0.29-0.02,0.43-0.02.02-.03,0.05-0.05,0.07,0,0.21-.01.42-0.01,0.63v0.72c0,0.23.01,0.47,0.01,0.7,0.02,0.03.03,0.05,0.05,0.08,0.01,0.07.03,0.14,0.04,0.21a0.085,0.085,0,0,0,0,.07c0.02,0.14.03,0.28,0.05,0.43a0.423,0.423,0,0,1,.05.07c0.08,0.31.17,0.61,0.26,0.92,0.01,0.03.03,0.05,0.04,0.08a7.246,7.246,0,0,0,1.72,2.88l0.02,0.01a6.147,6.147,0,0,0,.63.62c0.4,0.32.84,0.6,1.26,0.9,0.09,0.06.18,0.13,0.27,0.2a8.643,8.643,0,0,0,2.43.97h0.14c0.05,0.01.1,0.03,0.15,0.04,0.02,0.02.05,0.03,0.07,0.05,0.83,0.01,1.66.03,2.49,0.04,0.02-.01.05-0.03,0.07-0.04a7.178,7.178,0,0,0,2.53-.66,8.678,8.678,0,0,0,4.81-5.52,0.3,0.3,0,0,1,.05-0.07c0.07-.5.15-0.99,0.22-1.48,0.05-.13.09-0.25,0.13-0.37-0.02-.07-0.04-0.14-0.06-0.2,0-.92.01-1.84,0.01-2.76a1.282,1.282,0,0,0,.05-0.27v-2.51a0.2,0.2,0,0,1-.04-0.08v-4.1c0.04,0,.08-0.01.12-0.01,0.3,0.19.59,0.4,0.91,0.57a12.04,12.04,0,0,0,3.14,1.19c0.04,0,.09-0.01.13-0.01,0.08,0.03.15,0.05,0.23,0.08a0.528,0.528,0,0,1,.13-0.01c0.43,0.18.51,0.13,0.51-.33v-5.32h-0.57a0.574,0.574,0,0,0-.07-0.04,7.538,7.538,0,0,1-.83-0.12,6.68,6.68,0,0,1-3.99-2.86,5.843,5.843,0,0,1-.96-2.3c-0.07-.06-0.13-0.11-0.19-0.17a2.048,2.048,0,0,0-.24-0.05h-2.74a0.977,0.977,0,0,0-.23.06c-0.05.07-.1,0.15-0.15,0.22a0.2,0.2,0,0,1-.01.08c0.01,0.13.01,0.26,0.01,0.39v15.65c0,0.9,0,1.79-.01,2.69-0.01.03-.03,0.06-0.04,0.09-0.02.16-.04,0.32-0.06,0.49a0.064,0.064,0,0,0,0,.06,4.014,4.014,0,0,1-1.45,2.18,2.814,2.814,0,0,1-1.48.66c-0.03.02-.05,0.04-0.07,0.05-0.05.02-.1,0.03-0.15,0.05a0.578,0.578,0,0,0-.14.05c-0.43-.04-0.86-0.07-1.28-0.1a0.66,0.66,0,0,0-.14.01,11.549,11.549,0,0,1-1.64-.85,2.806,2.806,0,0,1-1.21-1.68c-0.01-.03-0.03-0.05-0.04-0.08l-0.18-.78A0.085,0.085,0,0,0,2976.56,1121.12Z" transform="translate(-2960.88 -1093.5)"/>
</svg>
