<svg xmlns="http://www.w3.org/2000/svg" width="42.96" height="44.29" viewBox="0 0 42.96 44.29">
  <defs>
    <style>
      .cls-1 {
        fill: #fff;
        fill-rule: evenodd;
      }
    </style>
  </defs>
  <path id="Shape_21_copy" data-name="Shape 21 copy" class="cls-1" d="M2984.74,1023.6q9.78,0,19.56-.01c0.43,0,.56.09,0.56,0.54q-0.03,12.765,0,25.55a1.655,1.655,0,0,1-.53,1.26l-11.13,11.13a1.489,1.489,0,0,1-1.13.48c-2.17-.02-4.35,0-6.52-0.02a1.961,1.961,0,0,0-1.57.65c-1.45,1.49-2.95,2.93-4.42,4.4a0.939,0.939,0,0,1-.71.3c-1.93,0-3.87-.01-5.8.01-0.36,0-.41-0.14-0.41-0.44,0.02-1.48,0-2.95.02-4.43a0.389,0.389,0,0,0-.48-0.48c-3.22.02-6.44,0.01-9.66,0.01-0.63,0-.63,0-0.63-0.63v-18.89c0-3.58.02-7.16,0-10.75a9.483,9.483,0,0,1,.73-2.93c0.56-1.8,1.18-3.57,1.77-5.36a0.543,0.543,0,0,1,.51-0.39,3.052,3.052,0,0,1,.43-0.01h19.41v0.01Zm-6.75,37.47a1.739,1.739,0,0,0,.18.11c0.15-.19.28-0.39,0.44-0.56,1.43-1.44,2.88-2.87,4.3-4.31a1.436,1.436,0,0,1,1.09-.46c3.01,0.02,6.03-.02,9.04.03a2.375,2.375,0,0,0,1.84-.77q2.715-2.73,5.45-5.43a1.694,1.694,0,0,0,.54-1.3q-0.015-10.14,0-20.27c0-.46-0.15-0.53-0.56-0.53q-15.645.015-31.31,0.01a1.205,1.205,0,0,1-.19,0c-0.25-.03-0.34.06-0.32,0.32,0.03,0.4.07,0.81,0.07,1.22q0.015,13.095-.01,26.21c0,0.45.14,0.54,0.56,0.54,2.81-.02,5.61,0,8.42-0.02a0.381,0.381,0,0,1,.47.48c-0.02,1.42-.01,2.85-0.01,4.28v0.45Zm16.11-17.1v0.48c-0.01.96-.03,1.93-0.02,2.9a0.283,0.283,0,0,1-.35.35q-1.62-.015-3.24,0c-0.25.01-.36-0.05-0.36-0.33q0.015-5.67,0-11.32a0.272,0.272,0,0,1,.32-0.34c1.1,0.01,2.19.01,3.28,0,0.29,0,.35.11,0.35,0.37-0.02.6-.01,1.2-0.01,1.8Zm-11.52-8.28h0.38c0.29-.01.39,0.11,0.39,0.43q-0.015,5.535,0,11.07a0.413,0.413,0,0,1-.52.5c-1.02-.02-2.03-0.02-3.05.01-0.36.01-.44-0.1-0.44-0.45,0.01-3.69.01-7.39,0-11.08-0.01-.4.13-0.46,0.48-0.46C2980.74,1035.73,2981.66,1035.7,2982.58,1035.69Z" transform="translate(-2961.88 -1023.59)"/>
</svg>
